<?xml version="1.0" standalone="no"?>
<!DOCTYPE svg PUBLIC "-//W3C//DTD SVG 20010904//EN"
 "http://www.w3.org/TR/2001/REC-SVG-20010904/DTD/svg10.dtd">
<svg version="1.0" xmlns="http://www.w3.org/2000/svg"
 width="500.000000pt" height="500.000000pt" viewBox="0 0 500.000000 500.000000"
 preserveAspectRatio="xMidYMid meet">

<g transform="translate(0.000000,500.000000) scale(0.100000,-0.100000)"
fill="#000000" stroke="none">
<path d="M1595 4220 c-39 -12 -80 -51 -104 -98 -46 -91 -75 -333 -87 -712 -8
-231 -2 -281 52 -459 l34 -115 -64 -125 c-65 -128 -96 -212 -96 -263 0 -28 0
-28 25 -12 32 21 31 16 -4 -54 -35 -70 -54 -126 -49 -148 3 -14 7 -13 31 6 15
12 30 20 33 18 2 -3 -3 -24 -11 -48 -13 -38 -22 -170 -11 -170 3 0 20 9 39 20
l34 20 6 -162 c7 -200 33 -313 108 -465 104 -212 280 -396 476 -497 64 -32
199 -83 273 -102 100 -25 342 -26 445 -1 190 47 385 154 525 289 221 213 340
503 340 831 l0 109 34 -22 35 -21 7 36 c4 22 0 62 -10 103 -21 87 -21 87 11
62 17 -13 29 -17 31 -10 7 19 -18 100 -46 154 -37 70 -37 69 -14 57 34 -18 42
-13 36 22 -12 69 -38 136 -95 244 -32 62 -59 121 -59 130 0 10 18 81 40 158
50 172 57 257 41 505 -32 487 -67 645 -156 700 -44 27 -127 30 -174 5 -67 -34
-299 -299 -424 -482 -27 -40 -51 -73 -54 -73 -2 0 -13 5 -24 11 -45 24 -136
30 -208 14 -56 -13 -74 -14 -92 -4 -32 17 -166 14 -218 -5 -24 -9 -45 -15 -46
-14 -1 2 -21 31 -44 66 -116 173 -364 457 -424 486 -44 20 -105 27 -142 16z
m254 -520 c44 -45 76 -108 93 -179 l11 -49 -57 -56 c-31 -31 -68 -74 -82 -96
-15 -22 -30 -40 -35 -40 -16 0 -50 116 -55 189 -10 131 24 271 66 271 11 0 38
-18 59 -40z m1390 27 c47 -57 55 -309 12 -402 l-23 -50 -26 35 c-15 19 -53 63
-86 97 -57 61 -59 64 -53 106 9 66 41 130 90 181 45 47 67 56 86 33z m-960
-588 c38 -13 61 -54 61 -108 0 -85 -36 -124 -90 -96 -57 29 -92 113 -68 162
10 21 46 50 64 53 1 0 15 -5 33 -11z m504 0 c44 -20 58 -74 33 -133 -19 -45
-54 -76 -86 -76 -83 0 -91 167 -10 207 31 16 33 16 63 2z m-640 -264 c4 -8 2
-17 -4 -21 -15 -9 -39 3 -39 21 0 19 36 20 43 0z m760 9 c11 -11 -5 -34 -24
-34 -18 0 -26 20 -12 33 8 9 28 9 36 1z m-1063 -303 c0 -126 30 -184 101 -196
21 -4 42 -12 46 -18 5 -7 8 -82 8 -167 0 -140 2 -159 22 -195 29 -55 79 -100
137 -126 63 -27 118 -21 226 26 100 44 137 44 243 0 47 -19 102 -37 124 -41
113 -18 230 74 264 209 9 37 9 72 -1 157 -14 127 -8 144 47 155 54 10 68 20
88 61 12 26 17 61 17 125 0 49 4 91 9 95 13 8 45 -14 118 -81 153 -142 169
-329 40 -453 l-43 -42 17 -34 c26 -55 43 -154 29 -168 -9 -9 -16 -8 -30 5 -10
9 -23 17 -28 17 -5 0 -9 -39 -9 -87 0 -79 -3 -95 -32 -156 -25 -52 -37 -68
-50 -65 -11 2 -19 14 -21 28 -6 56 -13 70 -32 70 -12 0 -24 -10 -30 -22 -75
-185 -123 -271 -188 -340 -40 -42 -62 -48 -62 -17 0 28 -18 59 -34 59 -7 0
-31 -37 -54 -83 -40 -79 -92 -147 -113 -147 -5 0 -12 7 -15 15 -11 27 -32 16
-49 -27 -21 -53 -61 -108 -80 -108 -19 0 -61 53 -84 105 -20 46 -37 57 -47 30
-4 -8 -12 -15 -19 -15 -21 0 -80 78 -113 148 -16 34 -35 69 -42 77 -19 22 -40
0 -40 -41 0 -49 -19 -43 -82 25 -57 61 -120 172 -158 279 -17 45 -28 62 -41
62 -23 0 -39 -29 -39 -69 0 -43 -15 -46 -43 -9 -51 69 -76 194 -53 266 9 26
-14 31 -34 7 -44 -53 -55 43 -15 139 l24 60 -38 33 c-59 50 -91 122 -91 204 0
58 5 77 36 136 19 37 52 85 72 106 45 46 121 99 133 91 5 -3 9 -40 9 -83z
m825 -2 c72 -27 130 -72 174 -138 54 -80 73 -140 79 -258 4 -91 2 -106 -18
-148 -18 -38 -32 -52 -68 -67 -43 -19 -47 -20 -106 -4 -34 10 -88 31 -121 49
-55 29 -60 35 -63 69 -3 35 -1 37 34 47 85 23 140 87 162 187 18 82 -34 163
-122 189 -87 26 -235 14 -286 -24 -41 -30 -70 -80 -70 -122 0 -107 80 -212
178 -233 33 -8 41 -30 26 -71 -8 -20 -100 -66 -181 -90 l-62 -18 -48 24 c-69
35 -88 77 -87 194 1 111 24 195 73 268 45 67 83 100 156 133 100 46 246 51
350 13z m-62 -113 c40 -15 77 -42 77 -58 0 -5 -14 -1 -31 8 -43 22 -241 22
-294 0 -42 -18 -44 -4 -3 27 49 36 179 48 251 23z"/>
</g>
</svg>
